<svg xmlns="http://www.w3.org/2000/svg" width="68.702" height="11.088" viewBox="0 0 68.702 11.088">
  <path id="Path_785" data-name="Path 785" d="M4.73,0H6.644l-2.3-7.623H2.156L-.143,0h1.87l.385-1.639H4.345ZM2.42-2.948l.8-3.366.8,3.366Zm5.874.176H11.8V-4.114H8.294ZM30.013,0h2.436L29.523-9.7H26.737L23.811,0h2.38l.49-2.086h2.842Zm-2.94-3.752L28.1-8.036l1.022,4.284ZM56.367,0h2.784L55.807-11.088H52.623L49.279,0H52l.56-2.384h3.248Zm-3.36-4.288,1.168-4.9,1.168,4.9Zm13.136-4.5h-2.1v2.5H61.615v1.952h2.432v2.5h2.1v-2.5h2.416V-6.288H66.143Z" transform="translate(0.143 11.088)" fill="#505050"/>
</svg>
